<svg width="230" height="207" viewBox="0 0 230 207" fill="none" xmlns="http://www.w3.org/2000/svg">
<g clip-path="url(#clip0)">
<path d="M209.305 50H77.4374C80.5756 48.9937 83.4513 47.2471 85.8489 44.8496C89.8156 40.8831 92 35.6096 92 30.0002C92 24.3909 89.8156 19.1174 85.8492 15.1511C83.4509 12.7527 80.5748 11.0061 77.4353 9.99976H209.305C210.659 9.99976 211.968 10.2627 213.195 10.7815C214.384 11.2849 215.455 12.0073 216.376 12.9287C217.298 13.8508 218.021 14.9214 218.524 16.1111C219.043 17.3372 219.306 18.646 219.306 20.0002V40.0002C219.306 41.3545 219.043 42.6631 218.524 43.8896C218.021 45.0789 217.298 46.1494 216.377 47.0713C215.455 47.9924 214.384 48.7151 213.194 49.2188C211.968 49.7368 210.66 50 209.305 50ZM64.5906 50H43.4374C46.5757 48.9937 49.4514 47.2471 51.849 44.8496C52.6404 44.0581 53.361 43.2144 54.0073 42.3267C56.605 45.8977 60.2987 48.6216 64.5906 50ZM30.5627 50H20C18.6456 50 17.3368 49.7368 16.11 49.218C14.921 48.7153 13.8506 47.9929 12.929 47.0713C12.0074 46.1497 11.2852 45.0793 10.7821 43.8901C10.2632 42.6631 10.0001 41.3545 10.0001 40.0002V20.0002C10.0001 18.646 10.2632 17.3372 10.7821 16.1104C11.2852 14.9209 12.0074 13.8506 12.929 12.929C13.8507 12.0071 14.9213 11.2847 16.1111 10.7815C17.3372 10.2627 18.6456 9.99976 20 9.99976H30.5649C27.4255 11.0061 24.5493 12.7527 22.151 15.1511C18.1847 19.1174 16.0002 24.3909 16.0002 30.0002C16.0002 35.6096 18.1847 40.8831 22.1511 44.8494C24.5487 47.2471 27.4244 48.9937 30.5627 50ZM54.0073 17.6738C53.3611 16.7859 52.6405 15.9424 51.8491 15.1511C49.4508 12.7527 46.5746 11.0061 43.4352 9.99976H64.5928C60.3002 11.3779 56.6053 14.1023 54.0073 17.6738Z" fill="white"/>
<path d="M209.306 40.0002L209.305 19.9998L100.36 20C101.439 23.1777 102 26.5459 102 30.0002C102 33.4546 101.439 36.8223 100.36 40H209.305L209.306 40.0002ZM209.305 60H20C17.3002 60 14.6809 59.4712 12.2151 58.4285C9.83337 57.4211 7.69458 55.979 5.85791 54.1423C4.021 52.3054 2.57898 50.1665 1.5719 47.7852C0.528931 45.3193 0.00012207 42.7002 0.00012207 40.0002V20.0002C0.00012207 17.3005 0.528931 14.6812 1.5719 12.2151C2.5791 9.8335 4.02124 7.69458 5.85791 5.85791C7.69446 4.02124 9.83325 2.5791 12.2151 1.57153C14.6808 0.528564 17.3 -0.000244141 20 -0.000244141H209.305C212.005 -0.000244141 214.624 0.528564 217.09 1.57153C219.472 2.5791 221.611 4.02124 223.448 5.85791C225.284 7.69482 226.727 9.8335 227.734 12.2151C228.777 14.6812 229.306 17.3003 229.306 20.0002V40.0002C229.306 42.7002 228.777 45.3193 227.734 47.7852C226.727 50.1665 225.285 52.3054 223.448 54.1423C221.611 55.9788 219.472 57.4209 217.09 58.4285C214.624 59.4712 212.005 60 209.305 60ZM71.0002 19.0005C64.9344 19.0005 59.9995 23.9351 59.9995 30.0002C59.9995 36.0654 64.9344 41 71.0002 41C73.9384 41 76.7006 39.8557 78.7782 37.7783C80.8558 35.7007 82 32.9382 82 30.0002C82 27.0623 80.8558 24.2998 78.7782 22.2222C76.7006 20.1445 73.9384 19.0005 71.0002 19.0005ZM37 19.0005C34.0619 19.0005 31.2997 20.1445 29.222 22.2222C27.1444 24.2998 26.0002 27.0623 26.0002 30.0002C26.0002 32.9382 27.1444 35.7007 29.222 37.7783C31.2996 39.8557 34.0619 41 37 41C39.9382 41 42.7006 39.8557 44.7781 37.7783C46.8557 35.7007 47.9999 32.9382 47.9999 30.0002C47.9999 27.0623 46.8557 24.2998 44.7781 22.2222C42.7004 20.1445 39.9382 19.0005 37 19.0005Z" fill="white"/>
<path d="M175.293 83.021C175.293 83.021 177.269 106.253 158.514 119.85C139.758 133.448 112.075 133.921 112.075 133.921C112.075 133.921 117.418 106.674 133.551 92.1485C149.683 77.623 175.293 83.021 175.293 83.021Z" fill="white"/>
<path d="M44.0787 89.9373C44.0787 89.9373 74.0236 82.4543 91.6889 95.2939C109.354 108.133 121.922 135.471 121.922 135.471C121.922 135.471 92.9906 137.792 73.3831 125.809C53.7755 113.827 44.0787 89.9373 44.0787 89.9373Z" fill="white"/>
<path d="M129.734 128.378C120.87 130.546 122.106 155.785 122.152 156.83C122.776 170.318 129.328 193.091 133.645 194.242C124.636 194.241 114.526 194.735 114.137 194.241C111.576 191 116.133 135.869 106.197 133.133C96.2606 130.397 135.305 120.763 129.734 128.378Z" fill="white"/>
<path d="M209.305 8H20C13.3726 8 8 13.3726 8 20V187C8 193.627 13.3726 199 20 199H209.305C215.932 199 221.305 193.627 221.305 187V20C221.305 13.3726 215.932 8 209.305 8Z" stroke="white" stroke-width="16"/>
</g>
<defs>
<clipPath id="clip0">
<rect width="229.306" height="207" fill="white"/>
</clipPath>
</defs>
</svg>
